<svg width="17" height="40" viewBox="0 0 17 40" fill="none" xmlns="http://www.w3.org/2000/svg">
    <g clip-path="url(#clip0_27_28)">
        <path fill-rule="evenodd" clip-rule="evenodd"
              d="M8.44552 0.996681H8.4944H8.54426L8.59315 0.997686L8.64204 0.99869L8.69089 0.999695L8.73877 1.00167L8.78665 1.00368L8.83353 1.00566L8.88041 1.00867L8.92728 1.01166L8.97319 1.01464L9.01906 1.01863L9.06493 1.02262L9.10983 1.0266L9.1547 1.0316L9.1996 1.03659L9.24349 1.04158L9.28738 1.04755L9.33027 1.05354L9.37414 1.05954L9.41703 1.06651L9.45894 1.07348L9.50083 1.08048L9.5537 1.08946L9.59358 1.09744L9.63348 1.10541L9.67339 1.11339L9.71229 1.12136L9.75119 1.13034L9.79009 1.13932L9.82699 1.1483C9.85292 1.15528 9.87886 1.16126 9.90479 1.16824L9.94369 1.17923L9.98259 1.18921L10.0205 1.20017L10.0584 1.21113L10.0963 1.22312L10.1332 1.23508L10.1711 1.24604L10.207 1.25901L10.2439 1.271L10.2798 1.28394L10.3167 1.29691L10.3516 1.30987L10.3876 1.32385L10.4225 1.33681L10.4574 1.35078L10.4923 1.36476L10.5132 1.37374C10.5322 1.38172 10.5511 1.38968 10.5701 1.39766L10.5791 1.40165C10.598 1.41063 10.617 1.4186 10.6359 1.42658L10.6449 1.43157C10.6638 1.43955 10.6828 1.44853 10.7008 1.45751L10.7097 1.46149C10.7277 1.46947 10.7466 1.47845 10.7646 1.48743L10.7686 1.48944L10.8314 1.52036L10.8923 1.55226C10.9341 1.57421 10.976 1.59714 11.0169 1.62008L11.0758 1.65399L11.1346 1.68891L11.1935 1.72382L11.2513 1.76074L11.3082 1.79764L11.365 1.83453L11.378 1.84351L11.4209 1.87246L11.4359 1.88241L11.4768 1.91136L11.4927 1.92232L11.5316 1.95026L11.5486 1.9632L11.5855 1.99014L11.6054 2.00411L11.6394 2.03004L11.6603 2.04499L11.6932 2.06995L11.7152 2.08691L11.7461 2.11083L11.77 2.12979L11.7989 2.15272L11.8239 2.17268L11.8508 2.19363L11.8767 2.21557L11.9017 2.23652L11.9306 2.25947L11.9535 2.2784L11.9835 2.30333L12.0044 2.32129L12.0353 2.34722L12.0553 2.36418L12.0872 2.39212L12.1051 2.40807L12.1391 2.43699L12.155 2.45197L12.2049 2.49586L12.2548 2.53972L12.2618 2.54673C12.2907 2.57266 12.3196 2.5986 12.3475 2.62453L12.3525 2.62852L12.4443 2.71229L12.4503 2.71828L12.547 2.80805L12.6438 2.89882L12.8433 3.08532L12.941 3.1771L13.0398 3.26887L13.0757 3.30077L13.1395 3.35964L13.2253 3.43745L13.2602 3.46935L13.2901 3.49528L13.341 3.54018L13.3619 3.55814L13.3919 3.58405L13.4138 3.60301L13.4427 3.62894L13.4647 3.6469L13.4946 3.67183L13.5165 3.6908L13.5465 3.71573L13.5694 3.73466L13.5993 3.75862L13.6213 3.77755L13.6512 3.80151L13.6741 3.81946L13.705 3.84439L13.728 3.86235L13.7579 3.88628L13.7818 3.90424L13.8128 3.92719L13.8357 3.94515L13.8667 3.96908L13.8906 3.98603L13.9225 4.00898L13.9454 4.02594L13.9784 4.04986L14.0013 4.06581L14.0342 4.08876L14.0581 4.10572L14.0911 4.12867L14.115 4.14462L14.1489 4.16657L14.1728 4.18252L14.2078 4.20547L14.2307 4.21944L14.2676 4.24337L14.2896 4.25633L14.3494 4.29326L14.4092 4.32914L14.4701 4.36406L14.5319 4.39797L14.5948 4.43188L14.6586 4.46381L14.7224 4.49571L14.7773 4.52265L14.7863 4.52664L14.8422 4.55257L14.8511 4.55656L14.908 4.58149L14.9169 4.58551L14.9738 4.61044L15.0027 4.6214L15.0366 4.63537L15.0715 4.64934L15.1065 4.66231L15.1414 4.67625L15.1763 4.68921L15.2122 4.70218L15.2481 4.71418L15.284 4.72614L15.3209 4.7381L15.3568 4.75006L15.3937 4.76206L15.4306 4.77302L15.4685 4.78397L15.5064 4.79496L15.5443 4.80495L15.5822 4.8149L15.6211 4.82589L15.66 4.83487L15.6989 4.84482L15.7378 4.8538L15.7777 4.86278L15.8176 4.87076L15.8575 4.87974L15.8984 4.88771L15.9393 4.89471L15.9802 4.90269L16.0221 4.90966L16.063 4.91666L16.1059 4.92263L16.1478 4.92862L16.1907 4.93459L16.2336 4.94058L16.2775 4.94558L16.2974 4.94856L16.3413 4.95355L16.3862 4.95754L16.4301 4.96153L16.476 4.96551L16.5208 4.9695L16.5667 4.97252L16.6126 4.9755L16.6585 4.97848L16.7054 4.98049L16.7522 4.98247L16.7991 4.98347L16.847 4.98548L16.8949 4.98646H16.9438H16.9926H17.0425C17.3836 4.98446 17.6968 4.95554 17.9871 4.90567C17.9452 4.39298 17.5163 3.98901 16.9926 3.98901C15.2002 3.98901 14.3225 3.10627 13.4268 2.26443C12.1979 1.11138 10.9511 -0.000762939 8.4944 -0.000762939C6.0377 -0.000762939 4.79089 1.11138 3.56304 2.26443C2.66634 3.10627 1.7896 3.98901 -0.00380909 3.98901C-0.527467 3.98901 -0.956377 4.39298 -0.99827 4.90567C-0.69405 4.95854 -0.363886 4.98646 -0.00380909 4.98646H0.0450464H0.0939324L0.141814 4.98548L0.189695 4.98347L0.236572 4.98247L0.283449 4.98049L0.330326 4.97848L0.376199 4.9755L0.423076 4.97252L0.467974 4.9695L0.513846 4.96551L0.558745 4.96153L0.602639 4.95754L0.647506 4.95355L0.6914 4.94856L0.73429 4.94357L0.778184 4.9376L0.798122 4.93459L0.841011 4.92862L0.882896 4.92263L0.925785 4.91666L0.9677 4.90966L1.00858 4.90269L1.04949 4.89471L1.09037 4.88771L1.13128 4.87974L1.17116 4.87076L1.21106 4.86278L1.25097 4.8538L1.28987 4.84482L1.32877 4.83487L1.36768 4.82589L1.40658 4.8149L1.44448 4.80495L1.48237 4.79496L1.52027 4.78397L1.55817 4.77302L1.59509 4.76206L1.63198 4.75006L1.6679 4.7381L1.70479 4.72614L1.74071 4.71418L1.77663 4.70218L1.81252 4.68921L1.84743 4.67625L1.88235 4.66231L1.91726 4.64934L1.95218 4.63537L1.98609 4.6214L2.015 4.61044L2.07187 4.58551L2.08085 4.58149L2.13771 4.55656L2.14669 4.55257L2.20254 4.52664L2.21149 4.52265L2.26637 4.49571L2.33021 4.46381L2.39404 4.43188L2.45687 4.39797L2.51872 4.36406L2.57957 4.32914L2.63941 4.29326L2.69926 4.25633L2.7212 4.24337L2.7581 4.21944L2.78105 4.20547L2.81697 4.18252L2.83989 4.16657L2.8738 4.14462L2.89775 4.12867L2.93066 4.10572L2.95461 4.08876L2.98752 4.06581L3.01047 4.04986L3.04338 4.02594L3.06633 4.00898L3.09823 3.98603L3.12218 3.96908L3.15308 3.94515L3.17603 3.92719L3.20696 3.90424L3.23088 3.88628L3.26081 3.86235L3.28376 3.84439L3.31468 3.81946L3.3376 3.80151L3.36756 3.77755L3.39048 3.75862L3.4204 3.73466L3.44235 3.71573L3.47227 3.6908L3.49422 3.67183L3.52414 3.6469L3.54608 3.62894L3.575 3.60301L3.59695 3.58405L3.62687 3.55814L3.64781 3.54018L3.69871 3.49528L3.74957 3.45042L3.76351 3.43745L3.84929 3.35964L3.91413 3.30077L3.94904 3.26887L4.04779 3.1771C4.14654 3.08434 4.24629 2.99158 4.34503 2.89882L4.44478 2.80507L4.53854 2.71828L4.63628 2.62852L4.64127 2.62453C4.6692 2.5986 4.69812 2.57266 4.72705 2.54673L4.74702 2.52776L4.78391 2.49586L4.83377 2.45197L4.88366 2.40807L4.93352 2.36418L4.95349 2.34722L4.98439 2.32129L5.00633 2.30333L5.03528 2.2784L5.0582 2.25947L5.08715 2.23652L5.11208 2.21557L5.13801 2.19363L5.16492 2.17268L5.19086 2.15272L5.2188 2.12979L5.24273 2.11083L5.27365 2.08691L5.2956 2.06995L5.3285 2.04499L5.34948 2.03004L5.38436 2.00411L5.40333 1.99014L5.44022 1.9632L5.45717 1.95026L5.49607 1.92232L5.51206 1.91136L5.55394 1.88241L5.56791 1.87246L5.6108 1.84351L5.62377 1.83453L5.66964 1.80461L5.68063 1.79764L5.72848 1.76671L5.73746 1.76074L5.78832 1.72881L5.79533 1.72382L5.8482 1.69192L5.85417 1.68891L5.91301 1.65399L5.97188 1.62008C6.01277 1.59714 6.05466 1.57421 6.09656 1.55226L6.1574 1.52036L6.22124 1.48944L6.22422 1.48743C6.24217 1.47845 6.26112 1.46947 6.27907 1.46149L6.28805 1.45751C6.30601 1.44853 6.32496 1.43955 6.34391 1.43157L6.35289 1.42658C6.37184 1.4186 6.3908 1.41063 6.40975 1.40165L6.41873 1.39766C6.43768 1.38968 6.45664 1.38172 6.47559 1.37374L6.51449 1.35776L6.5484 1.34381L6.58231 1.33085L6.61722 1.31788L6.65113 1.30491L6.68605 1.29194L6.72096 1.27995L6.75585 1.26698L6.79177 1.25502L6.82768 1.24306L6.86357 1.2321L6.89949 1.22111L6.93638 1.21015L6.97331 1.19917L7.0102 1.18821L7.04712 1.17822L7.08402 1.16824C7.10995 1.16126 7.13589 1.15528 7.16182 1.1483L7.20173 1.13932L7.2416 1.12934L7.28151 1.12039L7.32242 1.11238L7.3633 1.1034L7.40421 1.09543L7.44609 1.08745L7.48798 1.08048L7.52986 1.07348L7.57275 1.06651L7.61467 1.05954L7.65853 1.05354L7.70142 1.04755L7.74532 1.04158L7.78921 1.03659L7.83411 1.0316L7.87898 1.0266L7.92387 1.02262L7.96975 1.01863L8.01562 1.01464L8.06152 1.01166L8.1084 1.00867L8.16526 1.00566L8.21113 1.00268L8.25801 1.00167L8.30388 0.999695L8.35176 0.99869L8.39864 0.997686L8.44552 0.996681Z"
              fill="white"/>
    </g>
    <defs>
        <clipPath id="clip0_27_28">
            <rect width="17" height="40" fill="white"/>
        </clipPath>
    </defs>
</svg>
