<svg width="17" height="40" viewBox="0 0 17 40" fill="none" xmlns="http://www.w3.org/2000/svg">
    <g clip-path="url(#clip0_168_94)">
        <path d="M16.9448 8.46701H16.9926C21.2417 8.46701 21.2418 4.46701 25.4909 4.46701C29.74 4.46701 29.74 8.46701 33.9891 8.46701V-25.622C29.74 -25.622 29.74 -29.622 25.4909 -29.622C21.2587 -29.622 21.2418 -25.653 17.0425 -25.622H16.9926C14.9349 -25.622 13.8737 -26.56 12.8433 -27.528L12.6438 -27.715C11.6144 -28.683 10.5531 -29.622 8.49442 -29.622C6.43669 -29.622 5.37541 -28.683 4.34505 -27.715L4.14558 -27.528C3.11622 -26.56 2.05493 -25.622 -0.00379119 -25.622C-4.2529 -25.622 -4.25292 -29.622 -8.50203 -29.622C-12.7511 -29.622 -12.7511 -25.622 -17.0002 -25.622V8.46701C-12.7511 8.46701 -12.7511 4.46701 -8.50203 4.46701C-4.26988 4.46701 -4.25292 8.43601 -0.0536817 8.46701H-0.00379119C4.24532 8.46701 4.24531 4.46701 8.49442 4.46701C10.5531 4.46701 11.6144 5.40599 12.6438 6.37399L12.8433 6.561C13.8647 7.521 14.918 8.45301 16.9448 8.46701Z" fill="#12131D"/>
        <path fill-rule="evenodd" clip-rule="evenodd" d="M16.9438 7.98835H16.8939L16.845 7.98734L16.7961 7.98533L16.7482 7.98436L16.7004 7.98235L16.6535 7.97937L16.6066 7.97736L16.5597 7.97438L16.5139 7.97039L16.468 7.9674L16.4221 7.96339L16.3772 7.95842L16.3323 7.95444L16.2874 7.94944L16.2436 7.94345L16.1867 7.93648L16.1448 7.93048L16.1029 7.92451L16.062 7.91852L16.0211 7.91155L15.9812 7.90454L15.9433 7.89758C15.8884 7.8876 15.8336 7.87661 15.7807 7.86464L15.7398 7.85569L15.6999 7.84671L15.66 7.83673L15.6211 7.82775L15.5822 7.81679L15.5434 7.8068L15.5045 7.79581L15.4665 7.78486L15.4286 7.7739L15.3907 7.76291L15.3538 7.75095L15.301 7.73399L15.2661 7.72203L15.2311 7.71004L15.1962 7.69807L15.1613 7.68511L15.1274 7.67214L15.0935 7.65917L15.0596 7.64621L15.0257 7.63324L14.9947 7.62027L14.9558 7.60432L14.9259 7.59135L14.892 7.57638C14.8731 7.5684 14.8531 7.55945 14.8341 7.55047L14.8262 7.54746C14.8082 7.53848 14.7893 7.5305 14.7713 7.52153L14.7613 7.51653L14.7015 7.48762L14.6776 7.47565L14.6606 7.46667L14.6397 7.45669L14.6137 7.44275L14.5958 7.43377L14.5778 7.42479L14.5509 7.40981L14.5319 7.39986L14.517 7.39185L14.488 7.3749L14.4571 7.35794L14.4083 7.33003L14.3973 7.32403L14.3464 7.29411L14.3394 7.28912L14.2816 7.25323L14.2257 7.21932C14.1868 7.19339 14.1479 7.16843 14.109 7.14249L14.0552 7.1056L14.0003 7.0677L13.9464 7.0288L13.8926 6.9899L13.8387 6.94999L13.7858 6.90911L13.734 6.86921L13.717 6.85624L13.6821 6.82732L13.6632 6.81335L13.6302 6.78641L13.6103 6.76945L13.5794 6.74453L13.5564 6.72657L13.5285 6.70264L13.5046 6.68267L13.4776 6.65975L13.4517 6.6378L13.4278 6.61686L13.3998 6.59291L13.3779 6.57397L13.348 6.54804L13.328 6.53108L13.2791 6.48719L13.2293 6.44329L13.2213 6.43633C13.1934 6.41039 13.1654 6.38543 13.1385 6.3605L13.1325 6.35551L13.0747 6.30266L13.0358 6.26574L12.941 6.17899C12.9081 6.14807 12.8762 6.11813 12.8433 6.08721L12.6438 5.90068L12.546 5.80893L12.4473 5.71716L12.4124 5.68425L12.3475 5.62639L12.2618 5.54858L12.2268 5.51668L12.1969 5.48975L12.1461 5.44585L12.1251 5.42689L12.0952 5.40095L12.0732 5.38302L12.0443 5.35709L12.0224 5.33812L11.9924 5.31319L11.9705 5.29423L11.9406 5.27031L11.9186 5.25134L11.8887 5.22641L11.8658 5.20845L11.8358 5.18352L11.8129 5.16556L11.782 5.14164L11.759 5.12368L11.7291 5.09975L11.7052 5.08179L11.6742 5.05784L11.6513 5.04088L11.6204 5.01696L11.5965 5L11.5645 4.97605L11.5416 4.95909L11.5087 4.93617L11.4857 4.91922L11.4528 4.89626L11.4289 4.88031L11.396 4.85736L11.372 4.84141L11.3381 4.81846L11.3152 4.80349L11.2793 4.78056L11.2563 4.76559L11.2194 4.74266L11.1975 4.72869L11.1376 4.69278L11.0778 4.65689L11.0169 4.62197L10.9551 4.58706L10.8923 4.55412L10.8284 4.52122L10.7646 4.48932L10.7097 4.46338L10.7008 4.45937L10.6449 4.43346L10.6359 4.42847L10.5791 4.40351L10.5701 4.39952L10.5132 4.3756L10.4843 4.36363L10.4504 4.34966L10.4155 4.33669L10.3806 4.32272L10.3456 4.30975L10.3108 4.29679L10.2748 4.28382L10.2389 4.27186L10.203 4.25889L10.1661 4.24693L10.1302 4.23496L10.0933 4.22398L10.0564 4.21302L10.0185 4.20203L9.98059 4.19107L9.94269 4.18008L9.90479 4.17013L9.86589 4.16014L9.82699 4.15016L9.78808 4.14118L9.74918 4.13223L9.70928 4.12325L9.6694 4.11427L9.62949 4.1063L9.58861 4.09829L9.5477 4.09032L9.50682 4.08334L9.46591 4.07637L9.42403 4.06937L9.38114 4.0624L9.33925 4.0564L9.29636 4.05044L9.25348 4.04444L9.20958 4.03945L9.18961 4.03747L9.14575 4.03248L9.10085 4.02749L9.05696 4.0235L9.01209 4.01951L8.96619 4.0165L8.92132 4.01251L8.87444 4.00953L8.82854 4.00755L8.78166 4.00554L8.73478 4.00353L8.68791 4.00155L8.64003 4.00055L8.59214 3.99955L8.54329 3.99857H8.4944C4.24529 3.99857 4.2453 7.98835 -0.00380909 7.98835H-0.0536996C-0.395823 7.98635 -0.709999 7.95742 -1.00125 7.90656V7.98835C-1.00125 8.53993 -0.554398 8.98579 -0.00380909 8.98579C2.4529 8.98579 3.69968 7.87365 4.92853 6.7206C5.82423 5.87876 6.702 4.99601 8.4944 4.99601C10.2878 4.99601 11.1645 5.87876 12.0613 6.7206C13.2891 7.87365 14.5359 8.98579 16.9926 8.98579C17.5432 8.98579 17.9901 8.53993 17.9901 7.98835V7.90656C17.6848 7.95942 17.3547 7.98835 16.9926 7.98835H16.9438ZM8.44552 -30.0033H8.4944H8.54426L8.59315 -30.0023L8.64204 -30.0013L8.69089 -30.0003L8.73877 -29.9983L8.78665 -29.9963L8.83353 -29.9943L8.88041 -29.9913L8.92728 -29.9883L8.97319 -29.9854L9.01906 -29.9814L9.06493 -29.9774L9.10983 -29.9734L9.1547 -29.9684L9.1996 -29.9634L9.24349 -29.9584L9.28738 -29.9525L9.33027 -29.9465L9.37414 -29.9405L9.41703 -29.9335L9.45894 -29.9265L9.50083 -29.9195L9.5537 -29.9105L9.59358 -29.9026L9.63348 -29.8946L9.67339 -29.8866L9.71229 -29.8786L9.75119 -29.8697L9.79009 -29.8607L9.82699 -29.8517C9.85292 -29.8447 9.87886 -29.8387 9.90479 -29.8318L9.94369 -29.8208L9.98259 -29.8108L10.0205 -29.7998L10.0584 -29.7889L10.0963 -29.7769L10.1332 -29.7649L10.1711 -29.754L10.207 -29.741L10.2439 -29.729L10.2798 -29.7161L10.3167 -29.7031L10.3516 -29.6901L10.3876 -29.6762L10.4225 -29.6632L10.4574 -29.6492L10.4923 -29.6352L10.5132 -29.6263C10.5322 -29.6183 10.5511 -29.6103 10.5701 -29.6023L10.5791 -29.5984C10.598 -29.5894 10.617 -29.5814 10.6359 -29.5734L10.6449 -29.5684C10.6638 -29.5604 10.6828 -29.5515 10.7008 -29.5425L10.7097 -29.5385C10.7277 -29.5305 10.7466 -29.5215 10.7646 -29.5126L10.7686 -29.5106L10.8314 -29.4796L10.8923 -29.4477C10.9341 -29.4258 10.976 -29.4029 11.0169 -29.3799L11.0758 -29.346L11.1346 -29.3111L11.1935 -29.2762L11.2513 -29.2393L11.3082 -29.2024L11.365 -29.1655L11.378 -29.1565L11.4209 -29.1275L11.4359 -29.1176L11.4768 -29.0886L11.4927 -29.0777L11.5316 -29.0497L11.5486 -29.0368L11.5855 -29.0099L11.6054 -28.9959L11.6394 -28.97L11.6603 -28.955L11.6932 -28.93L11.7152 -28.9131L11.7461 -28.8892L11.77 -28.8702L11.7989 -28.8473L11.8239 -28.8273L11.8508 -28.8064L11.8767 -28.7844L11.9017 -28.7635L11.9306 -28.7405L11.9535 -28.7216L11.9835 -28.6967L12.0044 -28.6787L12.0353 -28.6528L12.0553 -28.6358L12.0872 -28.6079L12.1051 -28.5919L12.1391 -28.563L12.155 -28.548L12.2049 -28.5041L12.2548 -28.4603L12.2618 -28.4533C12.2907 -28.4273 12.3196 -28.4014 12.3475 -28.3755L12.3525 -28.3715L12.4443 -28.2877L12.4503 -28.2817L12.547 -28.192L12.6438 -28.1012L12.8433 -27.9147L12.941 -27.8229L13.0398 -27.7311L13.0757 -27.6992L13.1395 -27.6404L13.2253 -27.5626L13.2602 -27.5307L13.2901 -27.5047L13.341 -27.4598L13.3619 -27.4419L13.3919 -27.416L13.4138 -27.397L13.4427 -27.3711L13.4647 -27.3531L13.4946 -27.3282L13.5165 -27.3092L13.5465 -27.2843L13.5694 -27.2653L13.5993 -27.2414L13.6213 -27.2225L13.6512 -27.1985L13.6741 -27.1805L13.705 -27.1556L13.728 -27.1376L13.7579 -27.1137L13.7818 -27.0958L13.8128 -27.0728L13.8357 -27.0549L13.8667 -27.0309L13.8906 -27.014L13.9225 -26.991L13.9454 -26.9741L13.9784 -26.9501L14.0013 -26.9342L14.0342 -26.9112L14.0581 -26.8943L14.0911 -26.8713L14.115 -26.8554L14.1489 -26.8334L14.1728 -26.8175L14.2078 -26.7945L14.2307 -26.7806L14.2676 -26.7566L14.2896 -26.7437L14.3494 -26.7067L14.4092 -26.6709L14.4701 -26.6359L14.5319 -26.602L14.5948 -26.5681L14.6586 -26.5362L14.7224 -26.5043L14.7773 -26.4774L14.7863 -26.4734L14.8422 -26.4474L14.8511 -26.4434L14.908 -26.4185L14.9169 -26.4145L14.9738 -26.3896L15.0027 -26.3786L15.0366 -26.3646L15.0715 -26.3507L15.1065 -26.3377L15.1414 -26.3238L15.1763 -26.3108L15.2122 -26.2978L15.2481 -26.2858L15.284 -26.2739L15.3209 -26.2619L15.3568 -26.2499L15.3937 -26.2379L15.4306 -26.227L15.4685 -26.216L15.5064 -26.205L15.5443 -26.1951L15.5822 -26.1851L15.6211 -26.1741L15.66 -26.1651L15.6989 -26.1552L15.7378 -26.1462L15.7777 -26.1372L15.8176 -26.1292L15.8575 -26.1203L15.8984 -26.1123L15.9393 -26.1053L15.9802 -26.0973L16.0221 -26.0903L16.063 -26.0833L16.1059 -26.0774L16.1478 -26.0714L16.1907 -26.0654L16.2336 -26.0594L16.2775 -26.0544L16.2974 -26.0514L16.3413 -26.0464L16.3862 -26.0425L16.4301 -26.0385L16.476 -26.0345L16.5208 -26.0305L16.5667 -26.0275L16.6126 -26.0245L16.6585 -26.0215L16.7054 -26.0195L16.7522 -26.0175L16.7991 -26.0165L16.847 -26.0145L16.8949 -26.0135H16.9438H16.9926H17.0425C17.3836 -26.0155 17.6968 -26.0445 17.9871 -26.0943C17.9452 -26.607 17.5163 -27.011 16.9926 -27.011C15.2002 -27.011 14.3225 -27.8937 13.4268 -28.7356C12.1979 -29.8886 10.9511 -31.0008 8.4944 -31.0008C6.0377 -31.0008 4.79089 -29.8886 3.56304 -28.7356C2.66634 -27.8937 1.7896 -27.011 -0.00380909 -27.011C-0.527467 -27.011 -0.956377 -26.607 -0.99827 -26.0943C-0.69405 -26.0415 -0.363886 -26.0135 -0.00380909 -26.0135H0.0450464H0.0939324L0.141814 -26.0145L0.189695 -26.0165L0.236572 -26.0175L0.283449 -26.0195L0.330326 -26.0215L0.376199 -26.0245L0.423076 -26.0275L0.467974 -26.0305L0.513846 -26.0345L0.558745 -26.0385L0.602639 -26.0425L0.647506 -26.0464L0.6914 -26.0514L0.73429 -26.0564L0.778184 -26.0624L0.798122 -26.0654L0.841011 -26.0714L0.882896 -26.0774L0.925785 -26.0833L0.9677 -26.0903L1.00858 -26.0973L1.04949 -26.1053L1.09037 -26.1123L1.13128 -26.1203L1.17116 -26.1292L1.21106 -26.1372L1.25097 -26.1462L1.28987 -26.1552L1.32877 -26.1651L1.36768 -26.1741L1.40658 -26.1851L1.44448 -26.1951L1.48237 -26.205L1.52027 -26.216L1.55817 -26.227L1.59509 -26.2379L1.63198 -26.2499L1.6679 -26.2619L1.70479 -26.2739L1.74071 -26.2858L1.77663 -26.2978L1.81252 -26.3108L1.84743 -26.3238L1.88235 -26.3377L1.91726 -26.3507L1.95218 -26.3646L1.98609 -26.3786L2.015 -26.3896L2.07187 -26.4145L2.08085 -26.4185L2.13771 -26.4434L2.14669 -26.4474L2.20254 -26.4734L2.21149 -26.4774L2.26637 -26.5043L2.33021 -26.5362L2.39404 -26.5681L2.45687 -26.602L2.51872 -26.6359L2.57957 -26.6709L2.63941 -26.7067L2.69926 -26.7437L2.7212 -26.7566L2.7581 -26.7806L2.78105 -26.7945L2.81697 -26.8175L2.83989 -26.8334L2.8738 -26.8554L2.89775 -26.8713L2.93066 -26.8943L2.95461 -26.9112L2.98752 -26.9342L3.01047 -26.9501L3.04338 -26.9741L3.06633 -26.991L3.09823 -27.014L3.12218 -27.0309L3.15308 -27.0549L3.17603 -27.0728L3.20696 -27.0958L3.23088 -27.1137L3.26081 -27.1376L3.28376 -27.1556L3.31468 -27.1805L3.3376 -27.1985L3.36756 -27.2225L3.39048 -27.2414L3.4204 -27.2653L3.44235 -27.2843L3.47227 -27.3092L3.49422 -27.3282L3.52414 -27.3531L3.54608 -27.3711L3.575 -27.397L3.59695 -27.416L3.62687 -27.4419L3.64781 -27.4598L3.69871 -27.5047L3.74957 -27.5496L3.76351 -27.5626L3.84929 -27.6404L3.91413 -27.6992L3.94904 -27.7311L4.04779 -27.8229C4.14654 -27.9157 4.24629 -28.0084 4.34503 -28.1012L4.44478 -28.1949L4.53854 -28.2817L4.63628 -28.3715L4.64127 -28.3755C4.6692 -28.4014 4.69812 -28.4273 4.72705 -28.4533L4.74702 -28.4722L4.78391 -28.5041L4.83377 -28.548L4.88366 -28.5919L4.93352 -28.6358L4.95349 -28.6528L4.98439 -28.6787L5.00633 -28.6967L5.03528 -28.7216L5.0582 -28.7405L5.08715 -28.7635L5.11208 -28.7844L5.13801 -28.8064L5.16492 -28.8273L5.19086 -28.8473L5.2188 -28.8702L5.24273 -28.8892L5.27365 -28.9131L5.2956 -28.93L5.3285 -28.955L5.34948 -28.97L5.38436 -28.9959L5.40333 -29.0099L5.44022 -29.0368L5.45717 -29.0497L5.49607 -29.0777L5.51206 -29.0886L5.55394 -29.1176L5.56791 -29.1275L5.6108 -29.1565L5.62377 -29.1655L5.66964 -29.1954L5.68063 -29.2024L5.72848 -29.2333L5.73746 -29.2393L5.78832 -29.2712L5.79533 -29.2762L5.8482 -29.3081L5.85417 -29.3111L5.91301 -29.346L5.97188 -29.3799C6.01277 -29.4029 6.05466 -29.4258 6.09656 -29.4477L6.1574 -29.4796L6.22124 -29.5106L6.22422 -29.5126C6.24217 -29.5215 6.26112 -29.5305 6.27907 -29.5385L6.28805 -29.5425C6.30601 -29.5515 6.32496 -29.5604 6.34391 -29.5684L6.35289 -29.5734C6.37184 -29.5814 6.3908 -29.5894 6.40975 -29.5984L6.41873 -29.6023C6.43768 -29.6103 6.45664 -29.6183 6.47559 -29.6263L6.51449 -29.6422L6.5484 -29.6562L6.58231 -29.6692L6.61722 -29.6821L6.65113 -29.6951L6.68605 -29.7081L6.72096 -29.72L6.75585 -29.733L6.79177 -29.745L6.82768 -29.7569L6.86357 -29.7679L6.89949 -29.7789L6.93638 -29.7898L6.97331 -29.8008L7.0102 -29.8118L7.04712 -29.8218L7.08402 -29.8318C7.10995 -29.8387 7.13589 -29.8447 7.16182 -29.8517L7.20173 -29.8607L7.2416 -29.8707L7.28151 -29.8796L7.32242 -29.8876L7.3633 -29.8966L7.40421 -29.9046L7.44609 -29.9125L7.48798 -29.9195L7.52986 -29.9265L7.57275 -29.9335L7.61467 -29.9405L7.65853 -29.9465L7.70142 -29.9525L7.74532 -29.9584L7.78921 -29.9634L7.83411 -29.9684L7.87898 -29.9734L7.92387 -29.9774L7.96975 -29.9814L8.01562 -29.9854L8.06152 -29.9883L8.1084 -29.9913L8.16526 -29.9943L8.21113 -29.9973L8.25801 -29.9983L8.30388 -30.0003L8.35176 -30.0013L8.39864 -30.0023L8.44552 -30.0033Z" fill="#D3D3D3"/>
    </g>
    <defs>
        <clipPath id="clip0_168_94">
            <rect width="17" height="40" fill="white"/>
        </clipPath>
    </defs>
</svg>
